<svg id="e32533a25585441" xmlns="http://www.w3.org/2000/svg" width="80.068" height="80.068" viewBox="0 0 80.068 80.068">
  <g id="Group_145" data-name="Group 145">
    <path id="Path_28" data-name="Path 28" d="M80.068,70.06A10.038,10.038,0,0,1,70.06,80.068H10.009A10.038,10.038,0,0,1,0,70.06V10.009A10.038,10.038,0,0,1,10.009,0H70.06A10.038,10.038,0,0,1,80.068,10.009Z" fill="#1768ac"/>
  </g>
  <g id="Group_146" data-name="Group 146" transform="translate(23.533 18.143)">
    <path id="Path_29" data-name="Path 29" d="M150.483,156V119.947a3.614,3.614,0,0,1,3.727-3.93h25.412c2.168,0,3.253,1.084,3.253,2.914v.407c0,1.9-1.084,2.914-3.253,2.914h-22.16v12.266h17.145c2.236,0,3.253.949,3.253,2.778v.2c0,1.9-1.084,2.914-3.253,2.914H157.463V153.7h22.566c2.169,0,3.185.949,3.185,2.778v.339c0,1.965-1.017,3.049-3.185,3.049H154.21A3.559,3.559,0,0,1,150.483,156Z" transform="translate(-150.483 -116.017)" fill="#fff"/>
  </g>
</svg>
